<?xml version="1.0" encoding="UTF-8" standalone="no"?>
<svg
   width="310"
   height="310"
   version="1.1"
   id="svg2"
   sodipodi:docname="penguist.svg"
   inkscape:version="1.3.2 (091e20ef0f, 2023-11-25, custom)"
   xmlns:inkscape="http://www.inkscape.org/namespaces/inkscape"
   xmlns:sodipodi="http://sodipodi.sourceforge.net/DTD/sodipodi-0.dtd"
   xmlns="http://www.w3.org/2000/svg"
   xmlns:svg="http://www.w3.org/2000/svg">
  <defs
     id="defs2" />
  <sodipodi:namedview
     id="namedview2"
     pagecolor="#505050"
     bordercolor="#ffffff"
     borderopacity="1"
     inkscape:showpageshadow="0"
     inkscape:pageopacity="0"
     inkscape:pagecheckerboard="1"
     inkscape:deskcolor="#505050"
     inkscape:zoom="0.91612903"
     inkscape:cx="155"
     inkscape:cy="154.45423"
     inkscape:window-width="1916"
     inkscape:window-height="1029"
     inkscape:window-x="0"
     inkscape:window-y="24"
     inkscape:window-maximized="1"
     inkscape:current-layer="svg2" />
  <rect
     width="256"
     height="256"
     x="45"
     y="2"
     fill="#ccc"
     rx="1"
     stroke="#333"
     stroke-width="5"
     transform="rotate(2)"
     id="rect1" />
  <rect
     width="256"
     height="256"
     x="5"
     y="45"
     fill="#eee"
     rx="1"
     stroke="#333"
     stroke-width="5"
     transform="rotate(-2)"
     id="rect2" />
  <g
     id="svgGroup"
     stroke-linecap="round"
     fill-rule="evenodd"
     fill="#333"
     transform="rotate(-2,3616.9305,-1048.8123)"
     style="fill:#333333">
    <path
       d="M 102.871,86.4 V 75.87 a 22.446,22.446 0 0 0 6.686,-2.668 20.537,20.537 0 0 0 2.764,-2.012 22.781,22.781 0 0 0 5.983,-8.189 26.267,26.267 0 0 0 0.137,-0.316 27.097,27.097 0 0 0 1.949,-7.566 33.701,33.701 0 0 0 0.211,-3.819 V 35.1 a 32.542,32.542 0 0 0 -0.646,-6.612 26.435,26.435 0 0 0 -1.514,-4.908 23.465,23.465 0 0 0 -4.912,-7.457 22.5,22.5 0 0 0 -1.208,-1.138 q -3.96,-3.465 -9.45,-4.725 V 0 a 43.523,43.523 0 0 1 9.125,3.4 36.179,36.179 0 0 1 5.995,3.845 q 6.3,4.995 9.675,12.06 a 34.743,34.743 0 0 1 3.189,11.794 42.357,42.357 0 0 1 0.186,4.001 v 16.2 a 40.042,40.042 0 0 1 -1.481,11.123 32.101,32.101 0 0 1 -5.854,11.332 34.756,34.756 0 0 1 -12.64,9.736 47.772,47.772 0 0 1 -8.195,2.909 z M 28.171,75.87 V 86.4 A 45.949,45.949 0 0 1 17.92,82.46 34.124,34.124 0 0 1 7.336,73.755 33.083,33.083 0 0 1 0.352,56.933 43.843,43.843 0 0 1 0.001,51.3 V 35.1 A 38.932,38.932 0 0 1 1.175,25.381 33.259,33.259 0 0 1 3.376,19.305 Q 6.751,12.24 13.096,7.245 A 38.589,38.589 0 0 1 23.955,1.297 46.833,46.833 0 0 1 28.171,0 v 10.26 q -5.4,1.26 -9.405,4.725 -4.005,3.465 -6.165,8.595 -2.16,5.13 -2.16,11.52 v 16.2 a 31.677,31.677 0 0 0 0.674,6.659 26.027,26.027 0 0 0 1.486,4.726 q 2.16,5.085 6.165,8.505 a 21.9,21.9 0 0 0 9.362,4.67 25.503,25.503 0 0 0 0.043,0.01 z m 165.33,-24.57 -39.96,19.08 v -9.81 l 26.55,-12.42 a 33.453,33.453 0 0 1 2.595,-1.044 28.981,28.981 0 0 1 0.915,-0.306 q 1.309,-0.413 2.143,-0.616 a 11.862,11.862 0 0 1 0.467,-0.104 q -0.894,-0.162 -2.373,-0.654 a 40.691,40.691 0 0 1 -0.327,-0.111 q -1.71,-0.585 -3.42,-1.395 L 153.541,31.5 v -9.99 l 39.96,19.08 z M 79.561,36.9 h -8.55 L 69.841,20.79 V 9.9 h 10.8 v 10.89 z m -19.44,0 h -8.55 L 50.401,20.79 V 9.9 h 10.8 v 10.89 z"
       vector-effect="non-scaling-stroke"
       id="path2" />
  </g>
</svg>
