<?xml version="1.0" encoding="UTF-8" standalone="no"?>
<svg
   width="310"
   height="310"
   version="1.1"
   id="svg2"
   sodipodi:docname="penguist.svg"
   inkscape:version="1.4 (e7c3feb100, 2024-10-09)"
   xmlns:inkscape="http://www.inkscape.org/namespaces/inkscape"
   xmlns:sodipodi="http://sodipodi.sourceforge.net/DTD/sodipodi-0.dtd"
   xmlns="http://www.w3.org/2000/svg"
   xmlns:svg="http://www.w3.org/2000/svg">
  <defs
     id="defs2" />
  <sodipodi:namedview
     id="namedview2"
     pagecolor="#505050"
     bordercolor="#ffffff"
     borderopacity="1"
     inkscape:showpageshadow="0"
     inkscape:pageopacity="0"
     inkscape:pagecheckerboard="1"
     inkscape:deskcolor="#505050"
     inkscape:zoom="1.2815774"
     inkscape:cx="-8.9733168"
     inkscape:cy="244.23027"
     inkscape:window-width="1920"
     inkscape:window-height="1054"
     inkscape:window-x="0"
     inkscape:window-y="0"
     inkscape:window-maximized="1"
     inkscape:current-layer="svg2" />
  <rect
     width="256"
     height="256"
     x="45"
     y="2"
     fill="#ccc"
     rx="1"
     stroke="#333"
     stroke-width="5"
     transform="rotate(2)"
     id="rect1" />
  <rect
     width="256"
     height="256"
     x="5.0269065"
     y="44.229496"
     fill="#eeeeee"
     rx="1"
     stroke="#333333"
     stroke-width="5"
     transform="rotate(-2)"
     id="rect2" />
  <g
     font-size="12px"
     fill="#333"
     transform="rotate(-2.15,3571.5714,-540.59807)"
     style="fill:#333333"
     id="g1">
    <path
       d="m 123.6,0.002 v 11.1 a 34.212,34.212 0 0 1 7.477,0.781 c 20.89,4.668 21.783,28.762 21.821,30.962 a 9.642,9.642 0 0 1 0.002,0.157 18.591,18.591 0 0 1 -0.02,0.744 c -0.208,4.805 -2.561,31.156 -29.142,31.156 a 40.376,40.376 0 0 1 -0.138,0 v 11.1 c 42.3,0 42.4,-43 42.4,-43 0,0 -0.087,-37.441 -34.467,-42.449 A 55.003,55.003 0 0 0 123.6,0.002 Z m -81.2,86 v -11.1 a 40.376,40.376 0 0 1 -0.138,0 C 14.345,74.902 13.153,45.835 13.102,43.19 A 10.446,10.446 0 0 1 13.1,43.002 c 0,-0.381 0.091,-29.02 25.389,-31.7 a 37.121,37.121 0 0 1 3.911,-0.2 v -11.1 c -42.3,0 -42.4,43 -42.4,43 0,0 0.087,37.441 34.467,42.449 a 55.003,55.003 0 0 0 7.933,0.551 z m 143,-16.5 42.4,-22.7 v -9.6 l -42.4,-22.7 v 13 l 27,14.5 -27,14.5 z M 65.3,8.802 v 1.2 c 0,11.198 0.37,18.026 1.878,21.655 a 4.592,4.592 0 0 0 4.522,3.345 c 4.714,0 6.195,-5.288 6.523,-18.76 A 309.524,309.524 0 0 0 78.3,8.802 c 0,-5.1 -2.4,-8.8 -6.6,-8.8 A 5.714,5.714 0 0 0 68.185,1.097 C 66.52,2.346 65.56,4.598 65.346,7.513 A 17.623,17.623 0 0 0 65.3,8.802 Z m 22.4,0 v 1.2 c 0,11.198 0.37,18.026 1.878,21.655 a 4.592,4.592 0 0 0 4.522,3.345 c 4.714,0 6.195,-5.288 6.523,-18.76 a 309.524,309.524 0 0 0 0.077,-7.44 c 0,-5.1 -2.4,-8.8 -6.6,-8.8 A 5.714,5.714 0 0 0 90.585,1.097 C 88.92,2.346 87.96,4.598 87.746,7.513 A 17.623,17.623 0 0 0 87.7,8.802 Z"
       vector-effect="non-scaling-stroke"
       id="path1" />
  </g>
</svg>
